<svg width="16" height="16" xmlns="http://www.w3.org/2000/svg" class="date-img_3JSYa"><g fill="none" fill-rule="nonzero"><path d="M6 1v1h3V1h1v1h2a2 2 0 012 2v3h-1V6H2v7a1 1 0 001 1h3v1H3a2 2 0 01-2-2V4a2 2 0 012-2h2V1h1zm0 10v1H4v-1h2zm0-3v1H4V8h2zM4.999 3H3a1 1 0 00-1 1v1h11V4a1 1 0 00-1-1h-2v1H9V3H5.999L6 4H5l-.001-1z" fill="#1488ED"></path><g stroke="#1488ED"><path d="M11.578 7.503l.348.68 1.953.62.56.939-.39.525a.743.743 0 00-.134.507h0l.53 1.505-.56.937-.715-.063a.748.748 0 00-.485.128 2.92 2.92 0 01-.479.267.74.74 0 00-.395.394h0l-.232.558h-1.127l-.233-.562a.737.737 0 00-.395-.39 2.928 2.928 0 01-.497-.266.75.75 0 00-.49-.13h0l-.71.064-.555-.942.382-.541a.743.743 0 00.125-.497h0l-.525-1.513.562-.94.712.064a.743.743 0 00.486-.127h0l1.089-1.19 1.175-.027z"></path><path d="M11 10h0a1 1 0 101 1s0 0 0 0h0a1 1 0 00-1-1s0 0 0 0h0z"></path></g></g></svg>
