<?xml version="1.0" encoding="UTF-8"?>
<svg width="16px" height="16px" viewBox="0 0 16 16" version="1.1" xmlns="http://www.w3.org/2000/svg" xmlns:xlink="http://www.w3.org/1999/xlink">
    <title>未整理/01图标/16px/填空题</title>
    <g id="未整理/01图标/16px/填空题" stroke="none" stroke-width="1" fill="none" fill-rule="evenodd">
        <g id="编组" transform="translate(2.000000, 1.558418)" fill="#3D4757">
            <path d="M7.32293474,0.949430241 C7.67501596,0.597349022 8.22497436,0.695074651 8.57641932,1.04651961 L8.57641932,1.04651961 L11.150288,3.62038829 C11.501733,3.97183325 11.5994586,4.52179166 11.2317912,4.88881914 C7.60480788,8.2152631 5.19710628,10.4252627 4.09256828,11.4415457 L12,11.4415822 L12,12.4415822 L0,12.4415822 L0,8.11646139 L0.5,7.44158221 L0.544,7.49115835 Z M5.218,4.36615835 L1,8.44158221 L1,11.4411584 L2.757,11.4411584 L2.69114741,11.3758038 C2.76380481,11.3031464 4.38444566,9.81344774 7.66020539,6.80830917 L5.218,4.36615835 Z M7.89639943,1.78071328 L5.938,3.67215835 L8.39798494,6.13152626 C8.92795906,5.64539921 9.49571295,5.1246802 10.1016135,4.56903227 L10.4057818,4.29009569 L7.89639943,1.78071328 Z" id="形状结合"></path>
        </g>
    </g>
</svg>