<?xml version="1.0" encoding="UTF-8"?>
<svg width="24px" height="24px" viewBox="0 0 24 24" version="1.1" xmlns="http://www.w3.org/2000/svg" xmlns:xlink="http://www.w3.org/1999/xlink">
    <title>文档格式图标/表单/24</title>
    <defs>
        <linearGradient x1="0%" y1="0%" x2="100%" y2="100%" id="linearGradient-1">
            <stop stop-color="#30A8FF" offset="0%"></stop>
            <stop stop-color="#127CF1" offset="100%"></stop>
        </linearGradient>
    </defs>
    <g id="文档格式图标/表单/24" stroke="none" stroke-width="1" fill="none" fill-rule="evenodd">
        <g id="表单">
            <rect id="Rectangle-19" fill="url(#linearGradient-1)" x="0" y="0" width="24" height="24" rx="2"></rect>
            <g id="编组-18" transform="translate(4.718750, 5.562500)" fill="#FFFFFF">
                <path d="M13.25,0.450068194 C13.8105033,0.450068194 14.2665655,0.897233529 14.2809024,1.45427999 L14.28125,1.48131819 L14.28125,12.4084132 C14.28125,12.9689165 13.8340847,13.4249787 13.2770382,13.4393157 L2.29131995,13.4396632 C1.73081668,13.4396632 1.27475446,12.9924979 1.26041752,12.4354514 L1.26006995,6.44486571 L3.26909702,6.44486571 L3.26909702,11.4328591 L12.2811869,11.4328591 L12.2811869,2.4608873 L9.1125,2.4608873 L7.45025284,4.99666788 C7.28419694,5.26177757 6.99729182,5.42602179 6.68594615,5.43602816 L6.65574286,5.43651323 L0.202916066,5.43606819 L1.34891607,3.44906819 L6.24046875,3.44934138 L7.90285618,0.889913546 C8.06891207,0.624803862 8.35581719,0.460559636 8.66716287,0.450553269 L13.25,0.450068194 Z" id="形状结合" fill-rule="nonzero"></path>
                <path d="M5.80773958,0.4375 L5.80725,0.4725 L4.67625,2.4305 L1.28125,2.4305 L2.43225,0.4375 L5.80773958,0.4375 Z" id="形状结合"></path>
            </g>
        </g>
    </g>
</svg>