<?xml version="1.0" encoding="UTF-8"?>
<svg width="12px" height="12px" viewBox="0 0 12 12" version="1.1" xmlns="http://www.w3.org/2000/svg" xmlns:xlink="http://www.w3.org/1999/xlink">
    <title>未整理/01图标/12px/更多</title>
    <g id="未整理/01图标/12px/更多" stroke="none" stroke-width="1" fill="none" fill-rule="evenodd">
        <path d="M2,5 C2.55228475,5 3,5.44771525 3,6 C3,6.55228475 2.55228475,7 2,7 C1.44771525,7 1,6.55228475 1,6 C1,5.44771525 1.44771525,5 2,5 Z M6,5 C6.55228475,5 7,5.44771525 7,6 C7,6.55228475 6.55228475,7 6,7 C5.44771525,7 5,6.55228475 5,6 C5,5.44771525 5.44771525,5 6,5 Z M10,5 C10.5522847,5 11,5.44771525 11,6 C11,6.55228475 10.5522847,7 10,7 C9.44771525,7 9,6.55228475 9,6 C9,5.44771525 9.44771525,5 10,5 Z" id="形状结合" fill="#AEB5C0"></path>
    </g>
</svg>