<?xml version="1.0" encoding="UTF-8"?>
<svg width="16px" height="16px" viewBox="0 0 16 16" version="1.1" xmlns="http://www.w3.org/2000/svg" xmlns:xlink="http://www.w3.org/1999/xlink">
    <title>åˆ‡ç‰‡</title>
    <g id="Â·é‡è¡¨ç±»é¢˜" stroke="none" stroke-width="1" fill="none" fill-rule="evenodd">
        <g id="é‡è¡¨é¢˜/æ»¡æ„åº¦/11é¡¹" transform="translate(-49.000000, -357.000000)" fill="#3D4757" fill-rule="nonzero">
            <g id="ç¼–è¾‘åŒº" transform="translate(23.000000, 139.000000)">
                <g id="ç¼–ç»„-3å¤‡ä»½-3" transform="translate(16.000000, 212.000000)">
                    <g id="ðŸ‘‰16pxå›¾æ ‡" transform="translate(10.000000, 6.000000)">
                        <path d="M6,2 C6.51283584,2 6.93550716,2.38604019 6.99327227,2.88337887 L7,3 L7,7 C7,7.51283584 6.61395981,7.93550716 6.11662113,7.99327227 L6,8 L2,8 C1.48716416,8 1.06449284,7.61395981 1.00672773,7.11662113 L1,7 L1,3 C1,2.48716416 1.38604019,2.06449284 1.88337887,2.00672773 L2,2 L6,2 Z M6,3 L2,3 L2,7 L6,7 L6,3 Z" id="è·¯å¾„-15"></path>
                        <path d="M11,2 L11,3 L9,3 L9,7 L13,7 L13,6 L14,6 L14,7 C14,7.51283584 13.6139598,7.93550716 13.1166211,7.99327227 L13,8 L9,8 C8.48716416,8 8.06449284,7.61395981 8.00672773,7.11662113 L8,7 L8,3 C8,2.48716416 8.38604019,2.06449284 8.88337887,2.00672773 L9,2 L11,2 Z" id="å½¢çŠ¶ç»“åˆ"></path>
                        <path d="M6,9 C6.51283584,9 6.93550716,9.38604019 6.99327227,9.88337887 L7,10 L7,14 C7,14.5128358 6.61395981,14.9355072 6.11662113,14.9932723 L6,15 L2,15 C1.48716416,15 1.06449284,14.6139598 1.00672773,14.1166211 L1,14 L1,10 C1,9.48716416 1.38604019,9.06449284 1.88337887,9.00672773 L2,9 L6,9 Z M6,10 L2,10 L2,14 L6,14 L6,10 Z" id="è·¯å¾„-15å¤‡ä»½"></path>
                        <path d="M13,9 C13.5128358,9 13.9355072,9.38604019 13.9932723,9.88337887 L14,10 L14,14 C14,14.5128358 13.6139598,14.9355072 13.1166211,14.9932723 L13,15 L9,15 C8.48716416,15 8.06449284,14.6139598 8.00672773,14.1166211 L8,14 L8,10 C8,9.48716416 8.38604019,9.06449284 8.88337887,9.00672773 L9,9 L13,9 Z M13,10 L9,10 L9,14 L13,14 L13,10 Z" id="è·¯å¾„-15å¤‡ä»½-3"></path>
                        <polygon id="è·¯å¾„-16" points="13.6464466 2.64644661 14.3535534 3.35355339 11.5 6.20710678 9.64644661 4.35355339 10.3535534 3.64644661 11.5 4.793"></polygon>
                    </g>
                </g>
            </g>
        </g>
    </g>
</svg>